# Blender v2.83.5 OBJ File: 'newArrow.blend'
# www.blender.org
mtllib newArrow.mtl
o Cube.003
v -0.996151 0.084450 0.010008
v -0.996151 -0.084450 0.010008
v -1.583745 0.084450 1.027750
v -1.583745 -0.084450 1.027750
v -1.171021 0.084450 -0.090953
v -1.171021 -0.084450 -0.090953
v -1.758614 0.084450 0.926789
v -1.758614 -0.084450 0.926789
v -1.171021 0.084450 0.110565
v -1.171021 -0.084450 0.110565
v -1.758614 0.084450 -0.907177
v -1.758614 -0.084450 -0.907177
v -0.996151 0.084450 0.009604
v -0.996151 -0.084450 0.009604
v -1.583744 0.084450 -1.008138
v -1.583744 -0.084450 -1.008138
v 1.003849 0.084450 0.010008
v 1.003849 -0.084450 0.010008
v 0.416256 0.084450 1.027750
v 0.416256 -0.084450 1.027750
v 0.828979 0.084450 -0.090953
v 0.828979 -0.084450 -0.090953
v 0.241386 0.084450 0.926789
v 0.241386 -0.084450 0.926789
v 0.828980 0.084450 0.110565
v 0.828980 -0.084450 0.110565
v 0.241386 0.084450 -0.907177
v 0.241386 -0.084450 -0.907177
v 1.003849 0.084450 0.009604
v 1.003849 -0.084450 0.009604
v 0.416256 0.084450 -1.008138
v 0.416256 -0.084450 -1.008138
v 0.003849 0.084450 0.010008
v 0.003849 -0.084450 0.010008
v -0.583744 0.084450 1.027750
v -0.583744 -0.084450 1.027750
v -0.171021 0.084450 -0.090953
v -0.171021 -0.084450 -0.090953
v -0.758614 0.084450 0.926789
v -0.758614 -0.084450 0.926789
v -0.171021 0.084450 0.110565
v -0.171021 -0.084450 0.110565
v -0.758614 0.084450 -0.907177
v -0.758614 -0.084450 -0.907177
v 0.003849 0.084450 0.009604
v 0.003849 -0.084450 0.009604
v -0.583744 0.084450 -1.008138
v -0.583744 -0.084450 -1.008138
vt 0.625000 0.500000
vt 0.875000 0.500000
vt 0.875000 0.750000
vt 0.625000 0.750000
vt 0.375000 0.750000
vt 0.625000 1.000000
vt 0.375000 1.000000
vt 0.375000 0.000000
vt 0.625000 0.000000
vt 0.625000 0.250000
vt 0.375000 0.250000
vt 0.125000 0.500000
vt 0.375000 0.500000
vt 0.125000 0.750000
vt 0.625000 0.500000
vt 0.875000 0.500000
vt 0.875000 0.750000
vt 0.625000 0.750000
vt 0.375000 0.750000
vt 0.625000 1.000000
vt 0.375000 1.000000
vt 0.375000 0.000000
vt 0.625000 0.000000
vt 0.625000 0.250000
vt 0.375000 0.250000
vt 0.125000 0.500000
vt 0.375000 0.500000
vt 0.125000 0.750000
vt 0.625000 0.500000
vt 0.875000 0.500000
vt 0.875000 0.750000
vt 0.625000 0.750000
vt 0.375000 0.750000
vt 0.625000 1.000000
vt 0.375000 1.000000
vt 0.375000 0.000000
vt 0.625000 0.000000
vt 0.625000 0.250000
vt 0.375000 0.250000
vt 0.125000 0.500000
vt 0.375000 0.500000
vt 0.125000 0.750000
vt 0.625000 0.500000
vt 0.875000 0.500000
vt 0.875000 0.750000
vt 0.625000 0.750000
vt 0.375000 0.750000
vt 0.625000 1.000000
vt 0.375000 1.000000
vt 0.375000 0.000000
vt 0.625000 0.000000
vt 0.625000 0.250000
vt 0.375000 0.250000
vt 0.125000 0.500000
vt 0.375000 0.500000
vt 0.125000 0.750000
vt 0.625000 0.500000
vt 0.875000 0.500000
vt 0.875000 0.750000
vt 0.625000 0.750000
vt 0.375000 0.750000
vt 0.625000 1.000000
vt 0.375000 1.000000
vt 0.375000 0.000000
vt 0.625000 0.000000
vt 0.625000 0.250000
vt 0.375000 0.250000
vt 0.125000 0.500000
vt 0.375000 0.500000
vt 0.125000 0.750000
vt 0.625000 0.500000
vt 0.875000 0.500000
vt 0.875000 0.750000
vt 0.625000 0.750000
vt 0.375000 0.750000
vt 0.625000 1.000000
vt 0.375000 1.000000
vt 0.375000 0.000000
vt 0.625000 0.000000
vt 0.625000 0.250000
vt 0.375000 0.250000
vt 0.125000 0.500000
vt 0.375000 0.500000
vt 0.125000 0.750000
vn 0.0000 1.0000 -0.0000
vn -0.5000 0.0000 0.8660
vn -0.8660 0.0000 -0.5000
vn 0.0000 -1.0000 0.0000
vn 0.8660 0.0000 0.5000
vn 0.5000 0.0000 -0.8660
vn -0.5000 0.0000 -0.8660
vn 0.8660 0.0000 -0.5000
vn -0.8660 0.0000 0.5000
vn 0.5000 0.0000 0.8660
usemtl Material.005
s off
f 1/1/1 5/2/1 7/3/1 3/4/1
f 4/5/2 3/4/2 7/6/2 8/7/2
f 8/8/3 7/9/3 5/10/3 6/11/3
f 6/12/4 2/13/4 4/5/4 8/14/4
f 2/13/5 1/1/5 3/4/5 4/5/5
f 6/11/6 5/10/6 1/1/6 2/13/6
usemtl Material.004
f 9/15/1 13/16/1 15/17/1 11/18/1
f 12/19/7 11/18/7 15/20/7 16/21/7
f 16/22/8 15/23/8 13/24/8 14/25/8
f 14/26/4 10/27/4 12/19/4 16/28/4
f 10/27/9 9/15/9 11/18/9 12/19/9
f 14/25/10 13/24/10 9/15/10 10/27/10
usemtl Material.001
f 17/29/1 21/30/1 23/31/1 19/32/1
f 20/33/2 19/32/2 23/34/2 24/35/2
f 24/36/3 23/37/3 21/38/3 22/39/3
f 22/40/4 18/41/4 20/33/4 24/42/4
f 18/41/5 17/29/5 19/32/5 20/33/5
f 22/39/6 21/38/6 17/29/6 18/41/6
usemtl Material
f 25/43/1 29/44/1 31/45/1 27/46/1
f 28/47/7 27/46/7 31/48/7 32/49/7
f 32/50/8 31/51/8 29/52/8 30/53/8
f 30/54/4 26/55/4 28/47/4 32/56/4
f 26/55/9 25/43/9 27/46/9 28/47/9
f 30/53/10 29/52/10 25/43/10 26/55/10
usemtl Material.003
f 33/57/1 37/58/1 39/59/1 35/60/1
f 36/61/2 35/60/2 39/62/2 40/63/2
f 40/64/3 39/65/3 37/66/3 38/67/3
f 38/68/4 34/69/4 36/61/4 40/70/4
f 34/69/5 33/57/5 35/60/5 36/61/5
f 38/67/6 37/66/6 33/57/6 34/69/6
usemtl Material.002
f 41/71/1 45/72/1 47/73/1 43/74/1
f 44/75/7 43/74/7 47/76/7 48/77/7
f 48/78/8 47/79/8 45/80/8 46/81/8
f 46/82/4 42/83/4 44/75/4 48/84/4
f 42/83/9 41/71/9 43/74/9 44/75/9
f 46/81/10 45/80/10 41/71/10 42/83/10
